# xmcd
#
# Track frame offsets:
#	150
#	13394
#	22603
#	35052
#	46060
#	55055
#	66562
#	78451
#	88582
#	99731
#	110617
#	137835
#	148417
#	161749
#
# Disc length: 2408 seconds
#
# Revision: 1
# Processed by: cddbd v1.5.2PL0 Copyright (c) Steve Scherf et al.
# Submitted via: audiograbber 1.83.01
#
DISCID=c609660e
DTITLE=The Footstompin' Trio - The Footstompin' Trio
DYEAR=2002
DGENRE=Country
TTITLE0=Truck Driving Son of a Gun
TTITLE1=The Stitches Aren't Gone
TTITLE2=Mr. Wiz
TTITLE3=Log the Joint
TTITLE4=Danny's Breakdown
TTITLE5=Bullseye
TTITLE6=Drop the Bomb
TTITLE7=Run Chicken Run - Rawhide 63
TTITLE8=Waitin' Everyday
TTITLE9=Danny's Favorite
TTITLE10=Salt Creek - Red Haired Boy - I'm Going Back to Old Kentucky
TTITLE11=Mezro
TTITLE12=Six Days on the Road
TTITLE13=White Dove
EXTD=
EXTT0=
EXTT1=
EXTT2=
EXTT3=
EXTT4=
EXTT5=
EXTT6=
EXTT7=
EXTT8=
EXTT9=
EXTT10=
EXTT11=
EXTT12=
EXTT13=
PLAYORDER=
